Coordinates
version=1
nRows=7
nColumns=40
inDegrees=yes

Units are S.I. units (second, meters, Newtons, ...)
Angles are in degrees.

endheader
time	pelvis_tilt	pelvis_list	pelvis_rotation	pelvis_tx	pelvis_ty	pelvis_tz	hip_flexion_r	hip_adduction_r	hip_rotation_r	knee_angle_r	knee_angle_r_beta	ankle_angle_r	subtalar_angle_r	mtp_angle_r	hip_flexion_l	hip_adduction_l	hip_rotation_l	knee_angle_l	knee_angle_l_beta	ankle_angle_l	subtalar_angle_l	mtp_angle_l	lumbar_extension	lumbar_bending	lumbar_rotation	arm_flex_r	arm_add_r	arm_rot_r	elbow_flex_r	pro_sup_r	wrist_flex_r	wrist_dev_r	arm_flex_l	arm_add_l	arm_rot_l	elbow_flex_l	pro_sup_l	wrist_flex_l	wrist_dev_l
     38.05000000	     -4.51538879	     -2.44579772	      5.97926865	      0.89413840	      0.92527494	      0.42000532	     24.39888200	     -7.94021243	     -6.66783350	     67.48109453	     67.48109453	     -7.46336837	    -16.28992432	     -1.65628602	     16.54573712	     -1.20631808	      0.41133848	     24.86822973	     24.86822973	     15.53163238	     -9.52241599	      2.39455614	     -8.92085753	      4.70724568	      1.23590818	      4.78632033	    -15.15751006	    -11.38768617	     32.16620038	     46.23460137	      0.00000000	      0.00000000	     -4.14524224	    -13.22210669	     -7.85087059	     56.66119206	     46.76054456	      0.00000000	      0.00000000
     38.06371429	     -4.48962927	     -2.42937459	      5.59034104	      0.89298772	      0.92581166	      0.41949169	     26.18725271	     -8.06145591	     -6.59527313	     68.49439288	     68.49439288	     -7.05577397	    -16.95111276	     -1.72029514	     15.75949395	     -1.27479450	      0.02026960	     24.36762807	     24.36762807	     15.80154570	     -9.31421169	      2.37801433	     -9.11457260	      4.77781790	      0.96783090	      3.64810718	    -15.59386021	    -11.52482509	     31.51765272	     46.26207370	      0.00000000	      0.00000000	     -4.05831680	    -13.46656959	     -7.99610115	     57.02395365	     46.77878096	      0.00000000	      0.00000000
     38.07742857	     -4.39763671	     -2.46312608	      5.18572946	      0.89186654	      0.92635628	      0.41914205	     27.92029789	     -8.06118144	     -6.53664775	     69.42686119	     69.42686119	     -5.90178417	    -17.19569499	      0.48805231	     14.92586920	     -1.44469440	     -0.50250260	     23.89980528	     23.89980528	     16.07087904	     -8.90559577	      2.06937111	     -9.39476581	      4.86759214	      0.80002461	      2.97802941	    -15.87048399	    -12.82032851	     29.67561628	     46.41891008	      0.00000000	      0.00000000	     -4.35808895	    -13.82865998	     -7.85922269	     58.74249047	     46.80473412	      0.00000000	      0.00000000
     38.09114286	     -4.37532352	     -2.47693823	      4.78124425	      0.89072079	      0.92688853	      0.41881975	     29.55373709	     -8.09216218	     -6.56541155	     69.86357559	     69.86357559	     -5.46379678	    -17.67769175	      0.61754136	     14.11990757	     -1.52134219	     -0.83926764	     23.33100562	     23.33100562	     16.29623031	     -8.79997629	      2.10441969	     -9.58274936	      4.96132866	      0.59721540	      1.91360502	    -16.30598434	    -13.01999537	     29.07605871	     46.45017389	      0.00000000	      0.00000000	     -4.24627677	    -14.04331062	     -8.02364436	     59.06613626	     46.82435397	      0.00000000	      0.00000000
     38.10485714	     -4.26901226	     -2.48643143	      4.32652011	      0.88964558	      0.92756469	      0.41873973	     31.00914550	     -8.05582542	     -6.61478001	     69.91245896	     69.91245896	     -4.74498258	    -17.95324540	      1.53195354	     13.19042619	     -1.61589516	     -1.25439246	     22.70793422	     22.70793422	     16.47944981	     -8.64208251	      2.07473266	     -9.91394693	      5.01703621	      0.76969017	      0.84423416	    -16.74615368	    -13.50727079	     28.12426723	     46.51774963	      0.00000000	      0.00000000	     -4.06249753	    -14.17296819	     -8.12667282	     60.04464843	     46.85164110	      0.00000000	      0.00000000
     38.11857143	     -4.25489342	     -2.59234113	      3.94293832	      0.88843938	      0.92792032	      0.41876714	     32.38289638	     -7.96458458	     -6.86695826	     69.42255854	     69.42255854	     -4.15373379	    -18.09401660	      1.54656629	     12.57214984	     -1.78573950	     -1.51309387	     22.41872295	     22.41872295	     16.71597489	     -8.69936824	      2.06034279	    -10.08402818	      5.20885178	      0.27726458	      0.15333756	    -17.07027717	    -13.62959166	     27.83113961	     46.53419420	      0.00000000	      0.00000000	     -4.01220003	    -14.42870698	     -8.19455796	     60.17949607	     46.85876384	      0.00000000	      0.00000000
     38.13228571	     -4.36386410	     -2.73138502	      3.49781682	      0.88732405	      0.92844070	      0.41918732	     33.70408766	     -7.71048269	     -7.12027033	     68.27399231	     68.27399231	     -3.64216107	    -18.33689921	      1.95757974	     11.82113626	     -1.99715516	     -1.80856403	     21.62486439	     21.62486439	     16.84312610	     -8.55709530	      2.14479775	    -10.14295204	      5.40149236	      0.22006489	     -0.67359689	    -17.41159452	    -13.85348033	     27.34139236	     46.56585775	      0.00000000	      0.00000000	     -4.10486238	    -14.64787502	     -8.26737626	     60.66923537	     46.87128817	      0.00000000	      0.00000000
